<?xml version="1.0" encoding="UTF-8"?><svg id="Layer_1" xmlns="http://www.w3.org/2000/svg" viewBox="0 0 350 74"><defs><style>.cls-1{fill:#f58233;}.cls-2{fill:#d4e9f8;}.cls-3{fill:#2ea3dc;fill-rule:evenodd;}</style></defs><polyline class="cls-2" points="40.12 30.11 21.25 60.84 35.99 60.84 33.95 72.35 0 72.35 .65 68.58 19.5 37.85 7.09 37.85 9.11 26.36 40.76 26.36 40.12 30.11"/><polyline class="cls-2" points="62.78 60.84 60.76 72.35 40.52 72.35 46.56 37.85 41.15 37.85 43.18 26.36 63.42 26.36 57.34 60.84 62.78 60.84"/><path class="cls-2" d="M71.1,72.35l-5.25-46h13.82l1.17,18.02c.3,5.43-.08,13.26-.08,13.26,0,0,2.39-7.83,4.69-13.26l7.44-18.02h13.34l-21.43,46h-13.71"/><path class="cls-2" d="M121.86,36.37c2.58,0,2.95.74.83,12.98-2.11,12.24-2.86,12.98-5.41,12.98s-3.03-.74-.84-12.98c2.21-12.24,2.85-12.98,5.43-12.98M137.01,49.35c3.14-17.86-1.92-23.92-14.9-23.92s-18.4,6.06-21.52,23.92c-3.14,17.85,1.93,23.92,14.9,23.92s18.4-6.07,21.53-23.92"/><path class="cls-2" d="M53.71,8.75s.5-1.49-2.41-3c-1.59-.83-1.8-1-1.8-1,0,0,.22.2-.39.2s-1.6-.2-1.6.2-1.01.99-1.21,2.61c-.2,1.6-.8,2.2-.8,2.2,0,0,.21,1.8.4,2.21.2.4.8,2.2,1.4,2.6.59.41,0,.2-.21.41-.19.19.21.39.61.6.4.2,0,.6.4,1.2.39.6,2.65.31,3.79,2.6.21.41,1.02.2,1.02.2,0,0,.79.81.99,1,.21.2,2.42,0,3.01.39.6.41.4-.19.4-.19,0,0,1.41-.2,1.41,0,0,.19,1.2-.6,1.98-.6s2.22-1.01,2.61-1.41c.41-.39,1.22-1.19,1.22-1.99s0-1.2.4-1.61c.4-.39.8-1.8.59-2.4-.19-.6.61-.6.61-.6v-1.81c0-.6.79-.76.79-.55,0,.18-.58-1.45-.79-1.64-.2-.21.6,0,.6,0,0,0-.6-1.82-1.21-2.03-.59-.2.21-.59.21-.59l-2.61-2.21-.6-1.2s-3.4-1.4-3.79-1.4-.61-.2-.61-.2l-1.4.8s-2-.19-3.21-.4c-1.2-.2-.2.21-.6.6-.41.4-1.02.6-1.41.81-.39.2-.83.64-.39,1.21.24.32.79,1.2,1.4,1.2s-.19-.81-.19-.81c0,0,.6-.39,1-.39s.59-1,2.2-1,1.01.19,1.01.19c0,0,.39.4.39.81s.8.39.8.39l1.2-.39s.4,0,.4.39.81.81,1.01,1.2c.2.41.79.81,1.2,1,.4.21.8.21,1,1.21.2,1-.19,1.4-.39,1.8-.21.4-.21,1.2-.21,1.4s-.8,0-.8,0c0,0,.8,1,1.01,1.41.2.4-.6.6-.6.6l-.21.59.4,1.21-.4.99-.99-1.2s-.2.6-.4.6c-.22,0,0,.8-.61.8s-2.6.2-2.6.2c0,0-1.41.2-1.61-.41-.2-.6-1-1.59-1-1.59,0,0-.4-.2-1,0-.61.2-1.21,0-1.21-.41,0-.39.21-.99.21-1.39s-.6-.81-1-.81-1.4-.6-1.21-1c.21-.4.42-.8,1.02-.8s.59-.81.59-1.19c0-.41,1.52-.46,2.2.38"/><polygon class="cls-3" points="150.24 54.25 157.66 54.25 163.65 32.22 163.73 32.22 162.74 54.25 170.17 54.25 179.17 25.45 173.08 25.45 167.21 48 167.12 48 168.07 25.45 161.46 25.45 155.35 47.96 155.27 47.96 156.45 25.45 150.36 25.45 150.24 54.25"/><path class="cls-3" d="M192.35,45.22l.85-5.36c.75-4.76-.67-6.98-5.91-6.98s-7.38,2.22-8.13,6.98l-1.48,9.32c-.59,3.71,1.25,5.65,6.12,5.65s7.33-1.94,7.92-5.65l.29-1.85h-5.24l-.18,1.13c-.22,1.37-.9,1.86-1.83,1.86s-1.45-.48-1.24-1.86l.51-3.23h8.31ZM184.67,41.26l.3-1.9c.21-1.33.92-1.97,1.84-1.97s1.43.65,1.22,1.97l-.3,1.9h-3.07Z"/><path class="cls-3" d="M210.33,40.05l.3-1.94c.56-3.51-1.43-5.25-5.66-5.25-4.76,0-7.35,2.3-7.88,5.65-1.26,7.91,7.29,5.93,6.63,10.13-.19,1.17-.63,1.66-1.52,1.66s-1.4-.52-1.12-2.34l.15-.89h-5.48l-.26,1.61c-.61,3.79,1.12,6.13,6.01,6.13s7.56-2.34,8.08-6.94c1.03-6.5-7.55-5.81-7.01-9.24.12-.76.64-1.25,1.53-1.25.77,0,1.33.52,1.2,1.37l-.21,1.29h5.25Z"/><path class="cls-3" d="M216.42,33.44h-1.81l-.74,4.68h1.81l-1.99,12.59c-.35,2.18.48,3.55,2.62,3.55h5.65l.81-5.08h-1.57c-1.29,0-1.49-.32-1.13-2.58l1.34-8.47h3.11l.74-4.68h-3.1l.87-5.53h-5.73l-.88,5.53Z"/><path class="cls-3" d="M234.66,45.94l-.43,2.75c-.16,1.01-.78,1.61-1.63,1.61s-1.27-.61-1.12-1.61l1.54-9.68c.16-1.01.78-1.61,1.62-1.61s1.28.6,1.12,1.61l-.37,2.34h5.24l.43-2.7c.64-4.04-1.63-5.77-5.98-5.77s-7.15,2.1-7.74,5.77l-1.65,10.41c-.59,3.71,1.42,5.77,5.9,5.77s7.17-1.69,7.81-5.77l.49-3.11h-5.25Z"/><path class="cls-3" d="M250.47,39.16c.2-1.25.6-1.77,1.61-1.77s1.25.52,1.05,1.77l-1.48,9.36c-.2,1.25-.61,1.78-1.62,1.78s-1.25-.52-1.05-1.78l1.48-9.36ZM243.25,48.57c-.71,4.48,1.99,6.25,6.07,6.25s7.34-1.77,8.05-6.25l1.49-9.44c.71-4.48-1.99-6.25-6.07-6.25s-7.34,1.78-8.05,6.25l-1.5,9.44Z"/><path class="cls-3" d="M283.11,54.25l2.59-16.38c.56-3.51-.94-5-3.44-5-2.06,0-3.89,1.41-4.74,2.99h-.08c-.18-1.94-1.47-2.99-3.4-2.99-2.5,0-4.32,1.82-4.78,2.91h-.08l.37-2.34h-5.49l-3.29,20.82h5.72l2.29-14.44c.27-1.69.75-2.42,1.84-2.42.81,0,1.06.45.81,2.02l-2.35,14.85h5.72l2.29-14.44c.27-1.69.75-2.42,1.84-2.42.81,0,1.06.45.81,2.02l-2.35,14.85h5.73Z"/><polygon class="cls-3" points="301.56 54.25 302.39 49.01 294.36 49.01 304.61 30.69 305.44 25.45 291.92 25.45 291.09 30.69 297.95 30.69 287.99 49.01 287.16 54.25 301.56 54.25"/><path class="cls-3" d="M308.5,33.44l-3.3,20.82h5.73l3.3-20.82h-5.73ZM314.38,30.93l.86-5.49h-5.24l-.87,5.49h5.25Z"/><polygon class="cls-3" points="317.61 33.44 319.08 54.25 325.65 54.25 333.71 33.44 327.82 33.44 323.23 49.17 323.15 49.17 323.51 33.44 317.61 33.44"/><path class="cls-3" d="M341.49,39.16c.2-1.25.6-1.77,1.61-1.77s1.25.52,1.04,1.77l-1.48,9.36c-.2,1.25-.61,1.78-1.62,1.78s-1.25-.52-1.04-1.78l1.48-9.36ZM334.27,48.57c-.71,4.48,1.99,6.25,6.07,6.25s7.34-1.77,8.05-6.25l1.49-9.44c.72-4.48-1.99-6.25-6.06-6.25s-7.34,1.78-8.06,6.25l-1.49,9.44Z"/><path class="cls-1" d="M153.55,67.77l1.58-3.12h1.73l-2.51,4.63v2.95h-1.6v-2.9l-2.51-4.68h1.74l1.57,3.12Z"/><path class="cls-1" d="M166.14,69.31c0,.94-.25,1.68-.75,2.21-.5.53-1.19.8-2.08.8-.56,0-1.05-.12-1.47-.37-.42-.24-.75-.59-.98-1.05-.23-.46-.34-.99-.34-1.6,0-.95.25-1.68.74-2.21.49-.53,1.19-.79,2.08-.79.56,0,1.05.12,1.47.36.42.24.75.59.98,1.04.23.45.34.98.34,1.59ZM162.13,69.31c0,.57.09,1.01.28,1.3.19.29.49.44.92.44s.72-.15.91-.44c.18-.29.28-.73.28-1.3s-.09-1-.28-1.29c-.19-.29-.49-.43-.92-.43s-.73.14-.91.43c-.19.29-.28.72-.28,1.29Z"/><path class="cls-1" d="M174.73,72.22l-.21-.74h-.08c-.17.27-.41.48-.72.62-.31.15-.66.22-1.06.22-.68,0-1.19-.18-1.54-.55-.35-.36-.52-.89-.52-1.57v-3.78h1.58v3.38c0,.42.07.73.22.94.15.21.39.31.71.31.44,0,.76-.15.96-.44.2-.3.3-.79.3-1.47v-2.73h1.58v5.79h-1.21Z"/><path class="cls-1" d="M184.02,66.32c.21,0,.39.02.53.05l-.12,1.48c-.13-.03-.28-.05-.47-.05-.5,0-.9.13-1.18.39-.28.26-.42.62-.42,1.09v2.95h-1.58v-5.79h1.2l.23.97h.08c.18-.32.42-.59.73-.79.31-.2.64-.3,1-.3Z"/><path class="cls-1" d="M199.22,72.22h-4.36v-7.58h4.36v1.32h-2.76v1.66h2.56v1.32h-2.56v1.95h2.76v1.33Z"/><path class="cls-1" d="M203.35,70.03v-1.3h2.78v1.3h-2.78Z"/><path class="cls-1" d="M210.58,64.65h2.36c1.07,0,1.85.15,2.34.46.49.31.73.79.73,1.46,0,.45-.11.82-.32,1.11-.21.29-.49.46-.85.52v.05c.48.11.83.31,1.04.6.21.29.32.68.32,1.17,0,.69-.25,1.23-.75,1.62-.5.39-1.18.58-2.03.58h-2.83v-7.58ZM212.19,67.65h.93c.44,0,.75-.07.95-.2.2-.13.29-.36.29-.67,0-.29-.11-.5-.32-.62-.21-.13-.55-.19-1.01-.19h-.84v1.68ZM212.19,68.92v1.97h1.05c.44,0,.77-.08.98-.25.21-.17.32-.43.32-.78,0-.63-.45-.94-1.35-.94h-.99Z"/><path class="cls-1" d="M224.88,72.22l-.21-.74h-.08c-.17.27-.41.48-.72.62-.31.15-.67.22-1.06.22-.68,0-1.19-.18-1.54-.55-.35-.36-.52-.89-.52-1.57v-3.78h1.58v3.38c0,.42.07.73.22.94.15.21.39.31.71.31.44,0,.76-.15.96-.44.2-.3.3-.79.3-1.47v-2.73h1.58v5.79h-1.21Z"/><path class="cls-1" d="M234.97,70.5c0,.59-.21,1.05-.62,1.36-.41.31-1.03.47-1.85.47-.42,0-.78-.03-1.08-.09-.3-.06-.58-.14-.83-.25v-1.31c.29.14.62.25.99.35.37.09.69.14.97.14.57,0,.86-.17.86-.5,0-.12-.04-.23-.11-.3-.08-.08-.21-.17-.39-.26-.19-.1-.44-.21-.75-.34-.45-.19-.77-.36-.98-.52-.21-.16-.36-.34-.46-.55-.09-.21-.14-.46-.14-.76,0-.51.2-.91.6-1.19.4-.28.96-.42,1.7-.42s1.38.15,2.04.46l-.48,1.14c-.29-.12-.56-.23-.81-.31-.25-.08-.51-.12-.77-.12-.47,0-.7.13-.7.38,0,.14.08.26.23.37.15.1.48.26.99.46.45.18.78.35.99.51.21.16.37.34.47.55.1.21.15.45.15.74Z"/><path class="cls-1" d="M239.32,64.93c0-.51.29-.77.86-.77s.86.26.86.77c0,.25-.07.44-.22.57-.14.14-.36.2-.64.2-.57,0-.86-.26-.86-.78ZM240.97,72.22h-1.58v-5.79h1.58v5.79Z"/><path class="cls-1" d="M251.16,72.22h-1.58v-3.38c0-.42-.07-.73-.22-.94-.15-.21-.39-.31-.71-.31-.44,0-.76.15-.96.44-.2.3-.3.79-.3,1.47v2.73h-1.58v-5.79h1.21l.21.74h.09c.18-.28.42-.49.73-.63.31-.14.66-.22,1.05-.22.67,0,1.18.18,1.53.55.35.36.52.89.52,1.58v3.78Z"/><path class="cls-1" d="M258.59,72.33c-.93,0-1.66-.26-2.19-.77-.53-.51-.79-1.24-.79-2.19s.24-1.72.73-2.25c.49-.53,1.16-.8,2.01-.8s1.46.23,1.91.7c.46.47.68,1.11.68,1.93v.77h-3.74c.02.45.15.8.4,1.05.25.25.6.38,1.05.38.35,0,.68-.04.99-.11.31-.07.64-.19.97-.35v1.22c-.28.14-.57.24-.89.31-.31.07-.7.1-1.15.1ZM258.37,67.44c-.34,0-.6.11-.79.32-.19.21-.3.51-.33.9h2.22c0-.39-.11-.69-.31-.9-.2-.21-.46-.32-.8-.32Z"/><path class="cls-1" d="M269.47,70.5c0,.59-.21,1.05-.62,1.36-.41.31-1.03.47-1.85.47-.42,0-.78-.03-1.08-.09-.3-.06-.58-.14-.83-.25v-1.31c.29.14.62.25.99.35.37.09.69.14.97.14.57,0,.86-.17.86-.5,0-.12-.04-.23-.11-.3-.08-.08-.21-.17-.39-.26-.19-.1-.44-.21-.75-.34-.45-.19-.77-.36-.98-.52-.21-.16-.36-.34-.46-.55-.09-.21-.14-.46-.14-.76,0-.51.2-.91.6-1.19.4-.28.96-.42,1.7-.42s1.38.15,2.04.46l-.48,1.14c-.29-.12-.56-.23-.81-.31-.25-.08-.51-.12-.77-.12-.47,0-.7.13-.7.38,0,.14.08.26.23.37.15.1.48.26.99.46.45.18.78.35.99.51.21.16.37.34.47.55.1.21.15.45.15.74Z"/><path class="cls-1" d="M277.93,70.5c0,.59-.21,1.05-.62,1.36-.41.31-1.03.47-1.85.47-.42,0-.78-.03-1.08-.09-.3-.06-.58-.14-.83-.25v-1.31c.29.14.62.25.99.35.37.09.69.14.97.14.57,0,.86-.17.86-.5,0-.12-.04-.23-.11-.3-.08-.08-.21-.17-.39-.26-.19-.1-.44-.21-.75-.34-.45-.19-.77-.36-.98-.52-.21-.16-.36-.34-.46-.55-.09-.21-.14-.46-.14-.76,0-.51.2-.91.6-1.19.4-.28.96-.42,1.7-.42s1.38.15,2.04.46l-.48,1.14c-.29-.12-.56-.23-.81-.31-.25-.08-.51-.12-.77-.12-.47,0-.7.13-.7.38,0,.14.08.26.23.37.15.1.48.26.99.46.45.18.78.35.99.51.21.16.37.34.47.55.1.21.15.45.15.74Z"/><path class="cls-1" d="M293.64,67.01c0,.82-.25,1.44-.76,1.87-.51.43-1.23.65-2.17.65h-.69v2.69h-1.61v-7.58h2.42c.92,0,1.62.2,2.1.59.48.4.72.99.72,1.77ZM290.01,68.21h.53c.49,0,.86-.1,1.11-.29.25-.2.37-.48.37-.85s-.1-.65-.31-.83c-.21-.18-.53-.27-.97-.27h-.73v2.25Z"/><path class="cls-1" d="M301.81,72.22l-.31-.79h-.04c-.27.34-.54.57-.82.7-.28.13-.65.19-1.1.19-.56,0-.99-.16-1.31-.48-.32-.32-.48-.77-.48-1.36s.22-1.07.65-1.36c.43-.29,1.08-.45,1.95-.48l1.01-.03v-.25c0-.59-.3-.88-.9-.88-.46,0-1.01.14-1.63.42l-.52-1.07c.67-.35,1.41-.52,2.22-.52s1.37.17,1.79.51c.41.34.62.85.62,1.54v3.86h-1.1ZM301.34,69.54l-.61.02c-.46.01-.8.1-1.03.25-.22.15-.34.38-.34.69,0,.45.26.67.77.67.37,0,.66-.11.88-.32.22-.21.33-.49.33-.84v-.48Z"/><path class="cls-1" d="M310.96,66.32c.21,0,.39.02.53.05l-.12,1.48c-.13-.03-.28-.05-.47-.05-.5,0-.9.13-1.18.39-.28.26-.42.62-.42,1.09v2.95h-1.58v-5.79h1.2l.23.97h.08c.18-.32.42-.59.73-.79.31-.2.64-.3,1-.3Z"/><path class="cls-1" d="M318.17,71.07c.28,0,.61-.06.99-.18v1.18c-.39.18-.88.26-1.45.26-.63,0-1.09-.16-1.38-.48-.29-.32-.43-.8-.43-1.44v-2.79h-.76v-.67l.87-.53.46-1.22h1.01v1.23h1.62v1.19h-1.62v2.79c0,.22.06.39.19.5.13.11.29.16.5.16Z"/><path class="cls-1" d="M328.87,72.22h-1.58v-3.38c0-.42-.07-.73-.22-.94-.15-.21-.39-.31-.71-.31-.44,0-.76.15-.96.44-.2.3-.3.79-.3,1.47v2.73h-1.58v-5.79h1.21l.21.74h.09c.18-.28.42-.49.73-.63.31-.14.66-.22,1.05-.22.67,0,1.19.18,1.53.55.35.36.52.89.52,1.58v3.78Z"/><path class="cls-1" d="M336.3,72.33c-.93,0-1.66-.26-2.19-.77-.53-.51-.79-1.24-.79-2.19s.24-1.72.73-2.25c.49-.53,1.16-.8,2.01-.8s1.46.23,1.91.7c.46.47.68,1.11.68,1.93v.77h-3.74c.02.45.15.8.4,1.05.25.25.6.38,1.05.38.35,0,.68-.04.99-.11.31-.07.64-.19.97-.35v1.22c-.28.14-.57.24-.89.31-.31.07-.7.1-1.15.1ZM336.08,67.44c-.34,0-.6.11-.79.32-.19.21-.3.51-.33.9h2.22c0-.39-.11-.69-.31-.9-.2-.21-.46-.32-.8-.32Z"/><path class="cls-1" d="M346.37,66.32c.21,0,.39.02.53.05l-.12,1.48c-.13-.03-.28-.05-.47-.05-.5,0-.9.13-1.18.39-.28.26-.42.62-.42,1.09v2.95h-1.58v-5.79h1.2l.23.97h.08c.18-.32.42-.59.73-.79.31-.2.64-.3,1-.3Z"/></svg>