<?xml version="1.0" encoding="UTF-8"?>
<svg xmlns="http://www.w3.org/2000/svg" version="1.1" viewBox="0 0 742 105">
  <defs>
    <style>
      .cls-1 {
        fill: #fe822d;
      }

      .cls-2 {
        fill: #30a4dc;
      }
    </style>
  </defs>
  <!-- Generator: Adobe Illustrator 28.7.1, SVG Export Plug-In . SVG Version: 1.2.0 Build 142)  -->
  <g>
    <g id="txt-aboutus">
      <path class="cls-2" d="M739.2,59.9c-1.7-3.9-4.7-7.4-9.1-10.5-4.4-3.1-10.6-5.7-18.7-7.9-5.7-1.5-9.7-2.6-12.1-3.3-2.4-.8-4.1-1.7-5.3-2.7-1.2-1-1.7-2.4-1.7-4.2,0-2.8,1.4-4.6,4.2-5.4,1.6-.5,3.7-.8,6.3-1V1.3c-13.1.2-23.1,2.7-30,7.7-7.2,5.1-10.7,12.6-10.7,22.5s.9,10.1,2.6,13.8c1.7,3.7,4.6,6.8,8.5,9.4,4,2.6,9.4,5,16.4,7.2.8.3,2.1.7,3.8,1.1,5.1,1.6,8.7,2.8,11.1,3.7,2.3.9,4.1,1.9,5.3,3.1,1.2,1.2,1.8,2.7,1.8,4.6,0,2.9-1.2,4.8-3.7,5.8-2.5,1-6.6,1.5-12.2,1.5s-10.3-.7-16.1-2c-5.8-1.3-11.1-3.1-16-5.3v24.1c4.2,2,9.4,3.5,15.5,4.6,6.1,1.1,12.6,1.6,19.6,1.6,14.2,0,25-2.7,32.3-8.2,7.3-5.4,11-12.8,11-22.2s-.8-10.4-2.5-14.3ZM620.2,60.8c0,12.3-6.1,18.5-18.2,18.5s-18.3-6.2-18.3-18.5V.7h-29.5v63.2c0,12.9,4.4,22.8,13.1,29.9,8.7,7.1,20.3,10.6,34.7,10.6s17.7-1.6,24.9-4.7c7.2-3.1,12.8-7.7,16.8-13.8,4-6.1,6-13.4,6-22V.5h-29.5v60.3ZM485.6,1.4h-55.7v23.2h27.3v78.8h29.4v-4.4h0V24.6h27.3V1.4h-28.3ZM389.3,60.8c0,12.3-6.1,18.5-18.2,18.5s-18.3-6.2-18.3-18.5V.7h-29.5v63.2c0,12.9,4.4,22.8,13.1,29.9,8.7,7.1,20.3,10.6,34.7,10.6s17.7-1.6,24.9-4.7c7.2-3.1,12.8-7.7,16.8-13.8,4-6.1,6-13.4,6-22V22.4h-29.5v38.3ZM260.5,1.3c-28.3,0-51.2,22.9-51.2,51.2s22.9,51.2,51.2,51.2,51.2-22.9,51.2-51.2S288.7,1.3,260.5,1.3ZM260.2,71.6c-10.6,0-19.1-8.6-19.1-19.1s8.6-19.1,19.1-19.1,19.1,8.6,19.1,19.1-8.6,19.1-19.1,19.1ZM184,51.4c3.2-2.1,5.8-5.1,7.6-8.8,1.9-3.7,2.8-8.2,2.8-13.3,0-9.2-2.7-16.2-8-21.1-5.4-4.9-13.1-7.4-23.1-7.4h-55.2v103h56.4c10.7,0,19-2.7,24.8-8,5.8-5.3,8.7-12.8,8.7-22.5s-1.2-10.8-3.5-14.1c-2.3-3.3-5.8-5.9-10.5-7.8ZM165.3,80.3c-1.9,1.7-4.8,2.6-8.7,2.6h-20.3v-14.3h0v-34.6h0v-12h18.2c4.1,0,7,.8,8.8,2.5,1.8,1.7,2.7,4.2,2.7,7.6,0,6.6-3.6,9.9-10.8,9.9h-5.5v19.8h6.1c4.3,0,7.4.8,9.3,2.5,1.9,1.7,2.9,4.2,2.9,7.6s-.9,6.8-2.8,8.5ZM27,1.4l39.8,102h31.2L58.7,1.4h-31.7Z"/>
    </g>
    <g id="triangle3">
      <path class="cls-1" d="M742,1.3h-30.8l15.4,18.6,15.4-18.6Z"/>
    </g>
    <g id="triangle2">
      <path class="cls-1" d="M419.6,1.2h-30.6l15.3,18.5,15.3-18.5Z"/>
    </g>
    <g id="triangle1">
      <path class="cls-1" d="M-1,103.6h30.6l-15.3-18.5L-1,103.6Z"/>
    </g>
  </g>
</svg>