<?xml version="1.0" encoding="UTF-8"?>
<svg xmlns="http://www.w3.org/2000/svg" version="1.1" viewBox="0 0 753 105">
  <defs>
    <style>
      .cls-1 {
        fill: #fe822d;
      }

      .cls-2 {
        fill: #30a4dc;
      }
    </style>
  </defs>
  <!-- Generator: Adobe Illustrator 28.7.1, SVG Export Plug-In . SVG Version: 1.2.0 Build 142)  -->
  <g>
    <g id="txt-projects">
      <path class="cls-2" d="M750.4,59.5c-1.7-4-4.7-7.5-9.1-10.6-4.4-3.1-10.7-5.7-18.9-7.9-5.7-1.5-9.8-2.6-12.2-3.4-2.4-.8-4.2-1.7-5.3-2.7-1.2-1-1.7-2.5-1.7-4.2,0-2.8,1.4-4.6,4.2-5.5,1.6-.5,3.7-.8,6.3-1V.4c-13.2.2-23.3,2.8-30.2,7.7-7.2,5.2-10.8,12.7-10.8,22.6s.9,10.2,2.6,13.9c1.7,3.7,4.6,6.9,8.6,9.5,4,2.6,9.5,5,16.5,7.2.8.3,2.1.7,3.8,1.1,5.1,1.6,8.8,2.8,11.1,3.7,2.3.9,4.1,1.9,5.3,3.1,1.2,1.2,1.8,2.7,1.8,4.6,0,2.9-1.2,4.9-3.7,5.9-2.5,1-6.6,1.5-12.3,1.5s-10.4-.7-16.2-2c-5.8-1.4-11.2-3.1-16.1-5.3v24.3c4.2,2,9.4,3.5,15.6,4.6,6.1,1.1,12.7,1.6,19.7,1.6,14.3,0,25.2-2.7,32.5-8.2,7.4-5.5,11.1-12.9,11.1-22.3s-.9-10.4-2.5-14.4ZM633.9.6h-56.1v23.3h27.5v79.3h29.6v-4.4h0V23.9h27.5V.6h-28.5ZM517.9,73.1c-4.7-4.2-7.1-10.9-7.1-20.1s2.3-16.5,6.8-20.8c3.1-3.1,7.5-5,13.1-6V.7c-15.5.9-27.4,5.3-35.7,13.3-9.4,9-14.1,22-14.1,39s4.8,29.2,14.4,38.2c9.6,8.9,23.5,13.4,41.7,13.4s21.2-1.7,30.9-5v-25.9c-8.8,3.9-18.4,5.8-28.7,5.8s-16.4-2.1-21.1-6.3ZM394.7,103.2h77.5v-23h-47.7v-16.7h33.4v-23.3h-33.4v-16.7h47.7V.6h-77.5v102.7ZM344.6,63c0,5.4-1.2,9.3-3.7,11.6-1.6,1.5-3.9,2.5-6.9,3.1v.5h-14.8v25.2h14.8c.3,0,.5,0,.8,0,12.8,0,22.6-3.1,29.4-9.4,6.9-6.2,10.3-15,10.3-26.2V.6h-30v62.4ZM261.3.4c-28.5,0-51.5,23.1-51.5,51.5s23.1,51.5,51.5,51.5,51.5-23.1,51.5-51.5S289.8.4,261.3.4ZM261,71.2c-10.6,0-19.3-8.6-19.3-19.3s8.6-19.3,19.3-19.3,19.3,8.6,19.3,19.3-8.6,19.3-19.3,19.3ZM191.3,55.2c3.4-5.3,5.1-11.3,5.1-18.1,0-11.2-3.1-20-9.3-26.6-6.2-6.6-15.4-9.9-27.6-9.9h-53.7v72.7h30.1s8.5,0,8.5,0c2.2,0,4,.4,5.2,1.2,1.2.8,2.3,2.2,3.1,4.1l10.9,24.7h31.4l-11.9-26.9c-1.1-2.4-2-4.3-2.9-5.6-.9-1.3-1.9-2.4-3-3.3,5.9-2.9,10.5-6.9,13.9-12.2ZM163.1,45.7h-27.1v-22.1h16.8c8.5,0,12.8,4.5,12.8,13.5s-.9,6.4-2.5,8.6ZM53.4.6H.1v102.7h30.2v-27.5h0s22.5,0,22.5,0c4.5,0,8.6-.6,12.4-1.7,2.7-.8,5.2-1.8,7.6-3.1,5.7-3.2,10.1-7.6,13.3-13.2,3.1-5.6,4.7-12.1,4.7-19.3,0-11.2-3.2-20.2-9.5-27.3-6.3-7-15.6-10.5-27.8-10.5ZM58.4,45.7h-28v-22.1h16.4c4.4,0,7.7,1.3,9.9,3.9,2.2,2.6,3.3,6.2,3.3,10.9s-.5,5.2-1.5,7.3Z"/>
    </g>
    <g id="triangle1">
      <path class="cls-1" d="M105.8,103.1h31.3l-15.6-18.8-15.6,18.8Z"/>
    </g>
    <g id="triangle2">
      <path class="cls-1" d="M567.3.6h-30.5l15.2,18.5,15.2-18.5Z"/>
    </g>
    <g id="triangle3">
      <path class="cls-1" d="M753.1.5h-31.1l15.5,18.7,15.5-18.7Z"/>
    </g>
  </g>
</svg>