<?xml version="1.0" encoding="UTF-8"?>
<svg xmlns="http://www.w3.org/2000/svg" version="1.1" viewBox="0 0 1100 278">
  <defs>
    <style>
      .cls-1 {
        fill: #fe822d;
      }

      .cls-2 {
        fill: #1f5eb3;
      }
    </style>
  </defs>
  <!-- Generator: Adobe Illustrator 28.7.1, SVG Export Plug-In . SVG Version: 1.2.0 Build 142)  -->
  <g>
    <g id="Layer_1">
      <g id="W">
        <path class="cls-2" d="M297.1,49h-42.9v26.9l-19.8,67.6-20.3-94.5h-51.2l41.8,178.5h47.3l29.2-92.3,27,92.3h39.3l-23.1-83.7s-27.3-94.8-27.3-94.8Z"/>
      </g>
      <g id="O">
        <path class="cls-2" d="M466.7,49c-49.7,0-90,40.3-90,90s40.3,90,90,90,90-40.3,90-90-40.3-90-90-90ZM466.2,172.5c-18.6,0-33.6-15.1-33.6-33.6s15-33.6,33.6-33.6,33.6,15.1,33.6,33.6-15,33.6-33.6,33.6Z"/>
      </g>
      <g id="R">
        <path class="cls-2" d="M714.9,170.9c-1.5-2.2-3.2-4.2-5.3-5.8,10.2-5,18.3-12.1,24.2-21.2,5.9-9.1,8.9-19.6,8.9-31.5,0-19.4-5.4-34.8-16.1-46.3-10.7-11.5-26.7-17.2-47.8-17.2h-93.2v126.4h67c3.9,0,6.9.7,9,2.1s3.9,3.7,5.4,7.1l18.9,43h54.5l-20.6-46.8c-1.9-4.2-3.5-7.5-5-9.7h0ZM684.9,127.4h-47.1v-38.5h29.2c14.8,0,22.3,7.9,22.3,23.6s-1.5,11.2-4.4,14.9h0Z"/>
      </g>
      <g id="K">
        <path class="cls-2" d="M818.3,49.1h-52.4v178.4h52.4V49.1ZM876.6,133.7h-53.5l57.9,93.8h55.8l-60.2-93.8h0Z"/>
      </g>
      <g id="triangle1">
        <path class="cls-1" d="M388.4,49h-54.3l27.2,32.7,27.2-32.7Z"/>
      </g>
      <g id="triangle2">
        <path class="cls-1" d="M585.4,227.2h54.3l-27.2-32.7-27.1,32.7Z"/>
      </g>
      <g id="triangle3">
        <path class="cls-1" d="M917.8,49h-54.4l27.2,32.7,27.2-32.7Z"/>
      </g>
    </g>
  </g>
</svg>