<?xml version="1.0" encoding="UTF-8"?><svg id="Layer_1" xmlns="http://www.w3.org/2000/svg" viewBox="0 0 715 105"><defs><style>.cls-1{fill:#30a4dc;}</style></defs><path class="cls-1" d="M712.43,59.91c-1.69-3.94-4.72-7.44-9.09-10.5-4.37-3.06-10.62-5.68-18.73-7.86-5.69-1.45-9.72-2.57-12.09-3.34-2.37-.78-4.14-1.68-5.29-2.72-1.16-1.04-1.74-2.44-1.74-4.2,0-2.8,1.39-4.61,4.19-5.44,1.61-.48,3.71-.82,6.25-1.02V1.28c-13.13.19-23.15,2.74-30.04,7.68-7.17,5.13-10.75,12.63-10.75,22.48,0,5.5.87,10.09,2.61,13.77,1.74,3.68,4.58,6.82,8.54,9.41,3.95,2.59,9.4,4.98,16.36,7.16.84.31,2.11.68,3.79,1.09,5.06,1.56,8.74,2.78,11.06,3.66,2.32.88,4.08,1.92,5.29,3.11,1.21,1.19,1.82,2.72,1.82,4.59,0,2.9-1.24,4.85-3.71,5.83-2.48.99-6.56,1.48-12.25,1.48-4.95,0-10.33-.67-16.12-2.02-5.8-1.35-11.12-3.11-15.96-5.29v24.11c4.21,1.97,9.38,3.5,15.49,4.59,6.11,1.09,12.64,1.63,19.6,1.63,14.23,0,25-2.72,32.32-8.17,7.32-5.44,10.99-12.83,10.99-22.17,0-5.6-.85-10.37-2.53-14.31ZM593.4,60.79c0,12.35-6.07,18.52-18.19,18.52s-18.35-6.17-18.35-18.52l-.03-60.08h-29.47v63.22c0,12.87,4.37,22.84,13.1,29.9,8.73,7.06,20.31,10.59,34.74,10.59,9.41,0,17.72-1.57,24.94-4.71,7.21-3.14,12.81-7.74,16.78-13.81,3.97-6.07,5.96-13.39,5.96-21.97V.44h-29.49v60.35ZM458.71,1.42h-55.71v23.17h27.31v78.83h29.4v-4.37h-.02V24.59h27.33V1.42h-28.31ZM362.4,60.79c0,12.35-6.07,18.52-18.19,18.52s-18.35-6.17-18.35-18.52l-.03-60.08h-29.47v63.22c0,12.87,4.37,22.84,13.1,29.9,8.73,7.06,20.31,10.59,34.74,10.59,9.41,0,17.72-1.57,24.94-4.71,7.21-3.14,12.81-7.74,16.78-13.81,3.97-6.07,5.96-13.39,5.96-21.97V22.44h-29.49v38.35ZM233.54,1.28c-28.28,0-51.21,22.93-51.21,51.21s22.93,51.21,51.21,51.21,51.21-22.93,51.21-51.21S261.83,1.28,233.54,1.28ZM233.23,71.57c-10.56,0-19.13-8.56-19.13-19.13s8.56-19.13,19.13-19.13,19.13,8.56,19.13,19.13-8.56,19.13-19.13,19.13ZM157.1,51.39c3.22-2.13,5.77-5.06,7.64-8.8,1.87-3.73,2.81-8.16,2.81-13.27,0-9.17-2.68-16.2-8.03-21.11-5.35-4.9-13.07-7.36-23.15-7.36h-55.2v102.98h56.45c10.71,0,18.97-2.66,24.79-8,5.82-5.33,8.73-12.85,8.73-22.55,0-6.08-1.17-10.77-3.51-14.07-2.34-3.3-5.85-5.92-10.53-7.84ZM138.39,80.34c-1.87,1.71-4.78,2.56-8.73,2.56h-20.27v-14.32h0v-34.6h0v-12.01h18.24c4.05,0,6.99.83,8.81,2.48,1.82,1.65,2.73,4.19,2.73,7.6,0,6.61-3.59,9.91-10.76,9.91h-5.51v19.83h6.13c4.26,0,7.35.83,9.28,2.48,1.92,1.65,2.89,4.19,2.89,7.6,0,3.95-.94,6.77-2.81,8.48ZM.04,1.43l39.81,101.98h31.21L31.73,1.43H.04Z"/></svg>