<?xml version="1.0" encoding="UTF-8"?><svg id="Layer_1" xmlns="http://www.w3.org/2000/svg" viewBox="0 0 753 105"><defs><style>.cls-1{fill:#30a4dc;}</style></defs><path class="cls-1" d="M750.34,59.45c-1.7-3.97-4.75-7.49-9.15-10.57-4.4-3.08-10.69-5.72-18.85-7.91-5.73-1.46-9.78-2.58-12.17-3.37-2.39-.78-4.16-1.7-5.33-2.74-1.17-1.04-1.75-2.45-1.75-4.23,0-2.82,1.4-4.64,4.22-5.48,1.62-.48,3.73-.82,6.29-1.02V.44c-13.22.19-23.3,2.76-30.24,7.73-7.21,5.17-10.82,12.71-10.82,22.63,0,5.53.87,10.15,2.62,13.86,1.75,3.71,4.61,6.86,8.59,9.47,3.98,2.61,9.47,5.01,16.46,7.2.85.31,2.12.68,3.82,1.1,5.09,1.57,8.8,2.79,11.14,3.68,2.33.89,4.11,1.93,5.33,3.13,1.22,1.2,1.83,2.74,1.83,4.62,0,2.92-1.25,4.88-3.74,5.87-2.49.99-6.6,1.49-12.33,1.49-4.99,0-10.4-.68-16.23-2.04-5.83-1.36-11.19-3.13-16.07-5.32v24.27c4.24,1.98,9.44,3.52,15.59,4.62,6.15,1.1,12.73,1.64,19.73,1.64,14.32,0,25.16-2.74,32.53-8.22,7.37-5.48,11.06-12.92,11.06-22.31,0-5.64-.85-10.44-2.55-14.41ZM633.87.58h-56.07v23.32h27.48v79.34h29.59v-4.4h-.02V23.91h27.5V.58h-28.49ZM517.84,73.13c-4.74-4.23-7.1-10.94-7.1-20.14s2.26-16.46,6.79-20.85c3.15-3.05,7.52-5.04,13.11-5.97V.67c-15.46.89-27.38,5.32-35.75,13.3-9.42,8.99-14.13,22-14.13,39.03s4.79,29.23,14.36,38.16c9.57,8.93,23.46,13.4,41.67,13.4,10.93,0,21.23-1.67,30.9-5.02v-25.86c-8.85,3.87-18.42,5.8-28.72,5.8-9.36,0-16.42-2.12-21.15-6.35ZM394.67,103.24h77.51v-22.96h-47.65v-16.74h33.38v-23.27h-33.38v-16.74h47.65V.58h-77.51v102.66ZM344.55,62.99c0,5.39-1.22,9.25-3.67,11.57-1.59,1.51-3.88,2.53-6.86,3.06v.47h-14.84v25.16h14.84c.27,0,.53.01.8.01,12.76,0,22.57-3.12,29.43-9.36,6.86-6.24,10.29-14.96,10.29-26.16V.57h-29.99v62.42ZM261.3.44c-28.47,0-51.54,23.08-51.54,51.54s23.08,51.54,51.54,51.54,51.54-23.08,51.54-51.54S289.76.44,261.3.44ZM260.99,71.19c-10.63,0-19.25-8.62-19.25-19.25s8.62-19.25,19.25-19.25,19.25,8.62,19.25,19.25-8.62,19.25-19.25,19.25ZM191.27,55.18c3.42-5.26,5.13-11.29,5.13-18.09,0-11.16-3.1-20.03-9.29-26.62-6.2-6.59-15.38-9.88-27.56-9.88h-53.67v72.7h30.12s8.49-.01,8.49-.01c2.24,0,3.98.4,5.21,1.2,1.23.8,2.27,2.15,3.12,4.07l10.89,24.71h31.4l-11.86-26.94c-1.07-2.44-2.03-4.3-2.88-5.58-.86-1.28-1.87-2.39-3.04-3.35,5.87-2.87,10.52-6.93,13.94-12.19ZM163.1,45.68h-27.1v-22.15h16.82c8.54,0,12.82,4.52,12.82,13.55,0,3.56-.85,6.42-2.54,8.6ZM53.44.58H.12v102.66h30.19v-27.58h22.49c4.47,0,8.61-.57,12.43-1.67,2.68-.77,5.21-1.8,7.57-3.11,5.73-3.19,10.14-7.6,13.25-13.23,3.1-5.63,4.66-12.06,4.66-19.29,0-11.16-3.16-20.24-9.48-27.26-6.32-7.01-15.58-10.52-27.79-10.52ZM58.36,45.68h-28.05v-22.15h16.38c4.39,0,7.68,1.3,9.88,3.91,2.19,2.6,3.29,6.24,3.29,10.92,0,2.81-.51,5.24-1.51,7.32Z"/></svg>