<?xml version="1.0" encoding="UTF-8"?><svg id="Layer_1" xmlns="http://www.w3.org/2000/svg" viewBox="0 0 158 180"><defs><style>.cls-1{fill:#1f5eb3;}</style></defs><path class="cls-1" d="M129.37,121.95c-1.49-2.22-3.25-4.16-5.29-5.82,10.2-4.99,18.27-12.06,24.2-21.2,5.93-9.15,8.9-19.63,8.9-31.46,0-19.4-5.38-34.83-16.14-46.29C130.29,5.73,114.35,0,93.2,0H0v126.41h52.3v-.02h14.74c3.9,0,6.91.69,9.04,2.08,2.13,1.39,3.94,3.74,5.43,7.07l18.92,44.47h54.53l-20.59-48.35c-1.86-4.25-3.53-7.48-5.01-9.7ZM99.37,78.42h-47.06v-38.51h29.21c14.84,0,22.26,7.86,22.26,23.56,0,6.19-1.48,11.16-4.41,14.95Z"/></svg>